<?xml version="1.0" encoding="utf-8"?>
<!-- Generator: Adobe Illustrator 26.4.1, SVG Export Plug-In . SVG Version: 6.00 Build 0)  -->
<svg version="1.1" xmlns="http://www.w3.org/2000/svg" xmlns:xlink="http://www.w3.org/1999/xlink" x="0px" y="0px"
	 viewBox="0 0 1354.1 427.8" style="enable-background:new 0 0 1354.1 427.8;" xml:space="preserve">
<style type="text/css">
	.st0{fill:#FFFFFF;}
	.st1{fill:#FCF8EF;}
	.st2{fill:#5C5F48;}
	.st3{fill:#B5B7A5;}
	.st4{fill:#E2E2DA;}
	.st5{fill:#231F20;}
	.st6{fill:#747474;}
	.st7{fill:#E5E5E5;}
	.st8{fill:#F8F9FB;}
	.st9{fill:#A3A3A3;}
</style>
<g id="Background">
</g>
<g id="Logo_Design">
	<g>
		<path class="st6" d="M623.5,136.5v151.4c0,40.4-28,66.5-71.4,66.5c-1.8,0-3.5-0.1-5.2-0.2V323c1.9,0.2,3.9,0.3,5.8,0.3
			c22.1,0,35.3-13.6,35.3-36.2v-2.5c-11.7,7.5-25.4,11.9-40,11.9c-42.7,0-77.3-36.8-77.3-82c0-45.2,34.7-82,77.3-82
			c14.7,0,28.4,4.4,40,12v-8H623.5z M588.3,214.5c0-26.3-18.5-47.7-41.3-47.7c-22.8,0-41.2,21.3-41.2,47.7
			c0,26.4,18.5,47.7,41.2,47.7C569.9,262.2,588.3,240.9,588.3,214.5z"/>
		<path class="st6" d="M649.2,294.6V79.8h35.4v214.8H649.2z"/>
		<path class="st6" d="M861.5,130.6v82.2c0,45.2-34.7,82-77.3,82s-77.3-36.8-77.3-82v-81.9h35.7v81.9c0,25.5,18.7,46.3,41.6,46.3
			c22.9,0,41.6-20.8,41.6-46.3v-82.2H861.5z"/>
		<path class="st6" d="M912,224.7c4.3,20.9,21.1,36.3,41.2,36.3c15,0,28.2-8.7,35.7-21.9h37.1c-10,32.6-38.8,56.1-72.8,56.1
			c-42.2,0-76.5-36.4-76.5-81.3c0-44.8,34.3-81.3,76.5-81.3c34,0,62.8,23.6,72.8,56.2c2.4,7.9,3.8,16.3,3.8,25.1
			c0,3.6-0.2,7.1-0.7,10.7H912z M988.8,189c-7.4-13.2-20.6-21.9-35.7-21.9c-15.1,0-28.3,8.8-35.7,21.9H988.8z"/>
		<path class="st9" d="M1088.1,136.9v5.9h27v35.8h-27v116h-35.5l0.1-116h-10.1v-35.8h10.1V136c0-36.6,21.2-55.9,61.4-55.9h1.1v31.2
			C1097.2,112,1088.1,120.5,1088.1,136.9z"/>
		<path class="st9" d="M1282.2,130.6v82.2c0,45.2-34.7,82-77.3,82s-77.3-36.8-77.3-82v-81.9h35.7v81.9c0,25.5,18.7,46.3,41.6,46.3
			c22.9,0,41.6-20.8,41.6-46.3v-82.2H1282.2z"/>
		<path class="st9" d="M1304.3,294.6V79.8h35.4v214.8H1304.3z"/>
	</g>
	<g>
		<path class="st5" d="M297.5,304c-28.2,11.3-57,20.6-86.8,26.8c-21.7,4.5-43.4,8.3-65.7,7.9c-11.5-0.2-20.7-4.5-28.1-13.1
			c-6.9-8-12.3-17-17-26.4c-13.7-27.5-22.9-56.6-31-86.1c-6.2-22.7-11.4-45.6-14.9-68.8c-0.1-0.5-0.1-1-0.1-1.5l-2-12.5
			c0.1,5.2-1.9,8.9-7.5,11.5c-4.7,2.2-8.8,5.7-13.1,8.7c-10.9,7.7-16.7,17.8-15.3,31.5c0.7,7,0.5,14.1,1.3,21.1
			c4.2,35.2,12.3,69.6,22.8,103.4c8.6,27.7,18.5,54.9,34,79.7c8.7,14,20.3,21.9,37.4,20.1c4.1-0.4,8.2-0.2,12.3-0.6
			c49.4-5.4,96.8-18.1,142-38.5c12.3-5.5,24.1-12,33.7-21.8c4.5-4.6,7.3-9.9,7.2-16.4c-0.1-6.6-0.5-13.2-0.8-19.8
			C305.6,303,303.3,301.7,297.5,304z"/>
		<path class="st5" d="M121.7,307.7c8.5,14.3,20.2,19.1,36.1,17.1c14.9-1.8,29.9-3.6,44.6-6.7c31.1-6.6,61.5-15.5,90.7-28.1
			c10.1-4.3,10.3-4.6,9.3-15.3c-3.2-32.7-7.2-65.3-14.1-97.4c-4.7-21.7-10.4-43-22.1-62.3c-7-11.6-16.9-17.8-30.6-18.8
			c-33.9-2.4-66.8,3.6-99.6,11.1c-20.7,4.8-40.9,11.1-60.6,19.2c-3.9,1.6-6.5,1.5-7.7-1.1l1.7,19.3c4.7,29.2,11.5,57.9,20.2,86.1
			C97.9,257.5,107.3,283.6,121.7,307.7z"/>
	</g>
	<path class="st6" d="M353,242.9c-4.3-38.7-6.8-77.7-13.6-116.1c-4.9-27.7-10.7-55-22.5-80.8c-9.8-21.3-25.6-32.6-49.5-31.7
		c-1.6,0.1-3.2-0.1-4.8,0C206,15.2,152,28.5,100.4,51.5c-15.7,7-30.3,15.8-42.2,28.6c-4,4.4-6.1,9.4-7.1,15.2
		c-1.3,7.5-1.3,15-0.7,22.5l3.5,21.6c0.9-3.7,3.8-6.1,8.5-6.8c3-0.4,4.5,0.6,5.2,2.1l-1-11.7l0.4,0c-0.1-0.5-0.1-1-0.1-1.6
		c-0.2-6.4-0.5-12.8-0.6-19.1c-0.2-6.6,2.5-11.7,7.4-16.2C81.2,79,89.8,73.3,99,68.8C147.9,44.4,200,32.5,244.9,29.1
		c42.6-1.5,50.7,3.7,62,33.4c8.3,21.9,13.1,44.6,17,67.6c6.4,37.6,9.2,75.6,13.1,113.5c1.4,13.5-2.5,22.5-13.4,29.5
		c-5.2,3.3-10.5,6.4-15.7,9.7c-3.5,2.2-5.1,9.8-2.7,13.5c3.1,4.8,6.5,1.1,9.4-0.3c6.8-3.3,13.1-7.4,19.3-11.7
		C348.4,274.2,355.1,261.4,353,242.9z"/>
</g>
</svg>
